<?xml version="1.0" encoding="utf-8"?>
<!-- Generator: Adobe Illustrator 23.0.0, SVG Export Plug-In . SVG Version: 6.00 Build 0)  -->
<svg version="1.1" id="Layer_1" xmlns="http://www.w3.org/2000/svg" xmlns:xlink="http://www.w3.org/1999/xlink" x="0px" y="0px"
	 viewBox="0 0 961.19 730.19" enable-background="new 0 0 961.19 730.19" xml:space="preserve">
<g>
	<g>
		<path fill="transparent" d="M1.1,1.1c27.64,0,55.28,0,82.92,0c291.12,0,582.25,0.01,873.37-0.12c4.13,0,4.82,0.93,4.82,4.9
			c-0.12,240.3-0.1,480.6-0.12,720.89c0,2.14,1.13,4.44-3.17,4.44c-319.27-0.13-638.55-0.12-957.82-0.12
			C1.1,487.76,1.1,244.46,1.1,1.1z"/>
		<path fill="#010101" d="M248.98,110.67c-9.13-8.25-4.29-17.72-1.7-26.5c2.13-7.23,4.26-15.17,12.88-18.19
			c0.52-0.18,0.98-1.55,0.88-2.3c-1.41-10.76,5.39-16.91,12.9-22.32c19.78-14.25,42.03-23.19,65.75-27.85
			c9.5-1.87,19.59-0.77,29.41-0.92c11.16-0.17,22.32-0.56,33.46-0.18c4.76,0.16,9.42,2.41,14.21,3.02
			c4.78,0.62,9.84-0.37,14.49,0.64c20.91,4.56,38.25,15.54,52.77,31.03c1.26,1.34,1.66,3.92,1.68,5.94
			c0.12,20.45,0.07,40.9,1.34,61.34c0-18.3-0.04-36.6,0.06-54.9c0.01-1.79,0.84-3.57,1.29-5.36c1.84,0.85,4.23,1.22,5.42,2.61
			c9.69,11.33,16.79,23.52,15.66,39.48c-0.41,5.83,2.72,11.84,3.64,17.86c1.31,8.57,2.67,17.21,2.89,25.85
			c0.24,9.49-1.3,19.03-1.09,28.52c0.17,7.68,1.79,15.33,2.72,23c0.16,1.3,0.45,2.8-0.02,3.91c-1.66,3.95-1.69,7.56-0.63,11.89
			c1.49,6.06-5.43,11.14-12.08,10.03c-2.45-0.41-5.06,0.3-7.6,0.27c-1.25-0.02-2.75-0.23-3.69-0.95c-2.07-1.59-3.85-3.55-5.74-5.35
			c-0.19,1.08-0.37,2.17-0.56,3.25c-3.12,0.58-6.24,1.46-9.37,1.5c-0.61,0.01-1.25-3.28-2.1-5.67c-0.18,0.1-2.14,0.61-2.31,1.48
			c-0.93,4.72-4.17,4.76-7.91,4.77c-17.16,0.02-34.34-0.38-51.46,0.52c-11.05,0.59-17.34-6.31-17.02-17.29
			c0.24-8.38,1.8-16.74,1.86-25.12c0.11-14.56,0.33-29.21-1.03-43.67c-1.07-11.46-3.9-22.86-7.06-33.97
			c-1.08-3.8-5.57-9.37-8.42-9.31c-5.15,0.1-12.77,2.45-14.83,6.29c-4.66,8.7-8.35,18.71-9.2,28.47
			c-1.46,16.64-0.38,33.49-0.55,50.25c-0.02,2.04-1.17,4.07-1.92,6.51c0.54,1.94,2.05,4.92,2.09,7.91
			c0.29,23.66,0.25,47.32,0.4,70.98c0.13,20.93,0.16,41.87,0.67,62.79c0.18,7.15-1.85,10.66-9.68,8.84
			c0.33,2.62,0.62,4.95,0.94,7.48c1.38-1.11,2.78-2.24,4.43-3.56c7.65,9.02,3.45,19.44,4.13,28.98c0.65,9.17,3.59,19.65-9.43,25.23
			c0.85,0.56,1.7,1.13,2.55,1.69c2.81-1.17,5.59-2.46,8.46-3.47c1.25-0.44,2.7-0.32,4.06-0.46c0.01,1.27,0.35,2.64-0.01,3.79
			c-2.54,7.88-0.25,10.77,7.78,13.8c12.54,4.73,20.94-3.37,30.44-8.38c0.29-0.15,0.11-1.2,0.15-1.76c-1.64,0.67-3.11,1.28-4.59,1.89
			c-0.45-1.62-1.39-3.27-1.27-4.84c0.39-5.04,1.37-10.04,1.68-15.09c0.1-1.7-1.81-3.54-1.65-5.21c0.55-5.85,1.59-11.66,2.45-17.48
			c0.47-3.16,5.87-6.47-0.31-9.62c-0.29-0.15,1.29-5.27,1.68-5.22c2.64,0.3,5.2,1.36,9.72,2.78c3.56-0.75,9.42-2.16,15.35-3.19
			c4.5-0.78,8.56-0.38,7.85,6.43c1.47-1.66,2.34-3.19,3.65-3.98c1.84-1.11,4.13-2.46,5.99-2.16c1.06,0.17,2.24,3.38,2.31,5.26
			c0.27,8.16,0.36,16.34-0.01,24.48c-0.06,1.41-2.59,3.74-4.12,3.86c-6.63,0.51-13.31,0.56-19.96,0.34c-2.02-0.07-4-1.55-6.57-2.63
			c-0.86,0.72-2.47,2.07-4.08,3.41c1.98,2.58,3.57,6.9,7.06,1.22c0.35-0.57,2.2-0.3,3.36-0.3c13.32-0.02,26.64,0.09,39.96-0.06
			c6.75-0.08,13.49-0.78,20.24-0.8c1.81,0,3.6,1.5,5.43,2.26c1.36,0.57,2.74,1.48,4.14,1.52c6.16,0.16,12.36,0.44,18.49-0.05
			c5.02-0.4,5.71,1.75,5.69,6.04c-0.1,24.45-11.07,44.01-27.98,60.4c-23.49,22.77-51.34,37.09-84.51,38.47
			c-22.25,0.92-44.79,2.33-66.75-0.26c-15.54-1.83-30.55-9.43-45.34-15.56c-5.83-2.42-11.71-7-9.64-15.39
			c-12.41,0.85-17.16-4.14-14.67-12.41c-1.95-3.8-3.24-6.31-4.61-8.97c-3.36,1.78-5.19,0.44-4.95-4.3c0.06-1.24-0.45-3.35-1.24-3.66
			c-9.14-3.54-12-11.52-13.6-19.87c-6.26-32.65-4.66-65.62-3.66-98.58c0.4-13.22,2.47-26.51-1.21-39.71
			c-1.28-4.59-1.55-9.97,3.98-8.5c-0.88-8.77-2.03-17.96-2.62-27.18c-0.33-5.1,1.59-10.63,0.26-15.34
			c-5.1-17.99,2.14-34.71,3.85-52.01c0.95-9.58-1.15-19.46-1.86-29.21c-0.37-5.08,0.12-9.08,6.92-5.85
			c0.75,0.36,2.07-0.49,3.02-0.75c-3.51-1.47-6.65-2.78-9.8-4.09c2.26-2.62,4.52-5.25,6.78-7.87c0.71,0.09,1.14,0.6,1.61,1.06
			c0.48,0.48,0.95,0.95,1.41,1.45c4.02,5.6,10.6,8.95,13.57,15.47c0.37,0.81,1.15,1.29,2.04,0.78c0.88-0.51,0.78-1.35,0.38-2.15
			c-0.38-0.76-0.91-1.48-1.67-1.78c-6.31-2.48-9.84-8.13-14.47-12.53c-0.44-0.53-1.01-0.94-1.46-1.47
			C248.98,111.71,247.92,111.38,248.98,110.67z"/>
		<path fill="#010101" d="M637.09,535.08c-1.38-1.23-2.76-2.47-4.14-3.7c1.78-0.95,3.57-1.9,5.25-2.79c-3.68-5.1-3.18-7.29,2.9-8.07
			c-0.46-1.22-0.9-2.4-1.23-3.26c-1.6,0.61-3.2,1.22-4.8,1.83c-0.37-0.99-1.05-1.98-1.07-2.99c-0.1-5.67-0.05-11.35-0.05-17.93
			c-3.97,9.4-7.63,18.05-11.27,26.68c10.75,1.94,12.3,9.76,6.97,24.01c0.72,2.97,1.44,5.94,2.58,10.67
			c-0.6,0.06,1.11-0.47,2.64-0.17c1.41,0.28,3.38,1.18,3.83,2.31c3.03,7.66,5.66,15.48,8.59,23.18c0.41,1.07,1.81,1.77,2.75,2.64
			c0.64-0.45,1.28-0.9,1.93-1.35c-2.63-5.72-5.26-11.44-7.9-17.16c-0.9-1.96-2.32-3.84-2.64-5.89c-0.6-3.83-0.56-7.77-0.79-11.66
			c3.35,0.41,6.71,0.82,9.37,1.14c1.6-1.42,3.03-2.99,4.77-4c0.39-0.23,2.88,1.76,2.74,2.25c-0.54,1.84-1.76,3.47-2.89,5.48
			c3.32,4.73,3.03,28.62-0.12,31.29c0.76,3.38,1.98,6.32,2,9.26c0.16,22.16,0.16,44.33-0.03,66.5c-0.02,1.99-1.84,3.92-2.55,5.98
			c-0.39,1.13-0.55,2.54-0.24,3.66c0.8,2.91,2.71,5.71,2.78,8.6c0.32,12.49-0.03,25,0.22,37.49c0.09,4.51-1.23,6.19-5.93,6.11
			c-13.83-0.25-27.66-0.09-41.5-0.09c-23.14,0-46.29-0.19-69.42,0.13c-5.61,0.08-6.96-1.65-6.88-7.04
			c0.3-20.94,0.01-41.89,0.27-62.83c0.03-2.48,2.41-4.85,3.17-7.43c0.55-1.85,0.1-3.98,0.33-5.96c0.34-2.91,0.89-5.79-0.01-7.66
			c-1.21-2.3-3.48-4.6-3.48-6.9c-0.2-52.83-0.15-105.66-0.15-158.49c0-18.96-0.12-37.93,0.04-56.89
			c0.12-13.45,0.81-26.89,0.86-40.34c0.02-5.75-0.95-11.51-1.42-16.74c-14.94,0-29.82,0.03-44.7-0.12c-0.49,0-0.96-1.79-0.91-1.69
			c-6.97,1.2-13.55,2.64-20.21,3.23c-1.41,0.12-4.43-2.87-4.44-4.43c-0.02-9.08,1.05-18.16,0.98-27.24
			c-0.15-19.89-0.67-39.77-1.28-59.65c-0.14-4.47,0.99-6.14,5.79-6.06c17.5,0.27,35-0.01,52.49,0.25c2.25,0.03,4.47,1.99,6.71,3.06
			c6.31-0.99,13.32-2.99,20.35-3.04c22.77-0.18,45.55,0.32,68.32,0.63c2.72,0.04,5.43,0.52,8.06,1.92
			c12.71-2.9,25.54-3.61,38.97-1.57c8.14,1.24,16.75-1.03,25.14-1.04c9.85-0.01,19.71,0.93,29.56,1.03
			c2.86,0.03,5.71-1.83,8.63-2.06c1.33-0.11,4.13,1.91,4.01,2.51c-2.83,14.13-2.89,28.56-4.9,42.76c-0.22,1.57-1.27,3.03-1.73,4.07
			c1.3,1.51,3.24,2.74,3.33,4.08c0.26,3.93-0.52,7.92-0.36,11.87c0.34,8.29,1.05,16.57,1.56,24.85c0.24,3.87,0.7,6.81-5.58,6.29
			c-9.19-0.76-18.53,0.46-27.81,0.64c-7.06,0.13-14.14,0.09-21.19-0.23c-1.3-0.06-2.52-1.81-4.05-2.99
			c-4.14,1.69-8.91,3.96-13.92,5.45c-1.35,0.4-4.88-1.53-4.92-2.49c-0.59-14.25-0.77-28.51-1.98-42.77
			c0,16.59,0.24,33.18-0.16,49.76c-0.11,4.43-2.29,8.8-3.23,13.26c-0.11,0.51,1.7,1.41,4.02,3.24c0-5.11-0.11-9.49,0.06-13.86
			c0.05-1.31,0.55-3.31,1.42-3.7c1.28-0.58,3.09,0,4.67,0.08c-0.08,1.24-0.34,2.51-0.22,3.73c0.3,3.1,1.1,6.18,1.12,9.27
			c0.2,30.82,0.35,61.64,0.38,92.47c0.02,14.15-0.16,28.31-0.49,42.46c-0.05,2.19-1.41,4.34-2.05,6.17
			c0.86,1.29,2.36,2.51,2.39,3.76c0.21,7.99,0.14,15.99,0.03,23.99c-0.01,0.83-0.67,2.14-1.34,2.39c-4.88,1.8-9.79,3.56-14.78,5
			c-4.51,1.3-5.72-1.21-5.09-5.17c0.53-3.38,1.16-6.74,1.75-10.11L637.09,535.08z"/>
		<path fill="#AE6C17" d="M783.99,591.98c-1.42-0.81-2.83-1.62-4.25-2.43c0.62-1.04,1.23-2.09,1.88-3.17
			c-2.07-0.61-4.65-1.36-6.09-1.78c2.48,4.75,4.67,9.89,7.74,14.43c1.57,2.33,4.49,4.33,7.2,5.18c4.8,1.49,7.5,3.22,4.44,8.52
			c-0.31,0.55,0.26,1.6,0.38,2.22c2.12-1.68,5.19-4.71,5.64-4.36c2.46,1.9,4.77,4.39,6.21,7.16c1.92,3.69,3.21,7.76,4.35,11.79
			c0.54,1.89,0.09,4.06-0.94,6.14c3.62,5.92,3.61,15.33-0.13,17.73c0.78,7.96,1.9,15.26,2.13,22.58
			c0.35,11.26,0.09,22.54,0.09,33.81c0,4.4,0.19,8.81-0.19,13.17c-0.1,1.11-2.04,2.99-3.11,2.96c-17.16-0.36-34.32-1.54-51.46-1.26
			c-7.72,0.13-6.81-3.81-6.84-8.59c-0.06-12.63-0.44-25.27-0.31-37.9c0.03-2.81,1.65-5.61,1.61-8.36c0-1.92-0.04-3.84,0.03-5.76
			c0.01-0.41,0.58-0.82,0.56-1.22c-0.51-11-1.09-22.01-1.58-33.01c-0.09-2.02,0.06-4.07,0.29-6.08c0.62-5.43-3.08-4.86-6.48-4.8
			c-1.72,0.03-3.49-0.29-5.16,0c-6.69,1.18-5.25,6.83-5.63,11.14c-0.7,7.96-1.06,15.97-1.23,23.96c-0.06,3.03,0.9,6.07,1.19,9.12
			c0.3,3.07,1.2,6.42,0.36,9.2c-2.35,7.85,1.21,15.38,0.41,23.19c-0.87,8.49,0.05,17.16-0.4,25.72c-0.09,1.67-2.7,4.36-4.42,4.59
			c-4.74,0.64-9.62,0.22-14.45,0.22c-14.14,0-28.28,0.14-42.41-0.21c-1.48-0.04-3.74-2.84-4.11-4.67c-0.54-2.68,0.46-5.64,0.53-8.49
			c0.21-8.82,0.38-17.65,0.38-26.47c0.01-9.58-0.5-19.17-0.19-28.74c0.34-10.62,1.66-21.22,1.95-31.84
			c0.14-5.27-1.66-10.58-1.56-15.86c0.22-11.53,1.1-23.04,1.72-34.55c0.03-0.49,0.45-1.12,0.27-1.45
			c-4.39-7.84-0.47-15.86-0.65-23.79c-0.23-10.58-1.47-21.16-1.41-31.73c0.05-8.47,1.38-16.94,2.15-25.41
			c0.07-0.81,0.55-2.02,0.18-2.38c-7.04-6.92-0.24-5.98,3.57-6.03c21.8-0.27,43.84-2.33,65.29,0.32
			c10.91,1.34,21.84,0.79,32.48,2.63c6.3,1.09,12.77,4.48,17.85,8.5c6.22,4.92,11.29,11.4,16.37,17.6c1.31,1.6,0.96,4.67,1.14,7.08
			c0.47,6.45,0.7,12.91,1.25,19.35c0.46,5.48,1.45,10.91,1.73,16.39c0.1,1.95-1.19,3.98-2.06,6.63c1.65,1.04,6.48,2.87-0.57,5.69
			c-0.44,0.17-0.83,1.73-0.54,2.25c4.46,8.02-5.28,13.01-4.42,20.27c0.01,0.09-2.64,0.84-3.96,0.65c-1.12-0.16-2.11-1.23-2.79-1.66
			c-0.68,2.7-0.74,6.16-1.81,6.51c-3.24,1.06-6.88,1.13-10.34,0.99c-0.5-0.02-0.87-3.31-1.3-5.09
			C784.21,592.6,784.9,591.45,783.99,591.98z"/>
		<path fill="#AE6C17" d="M118.94,498.18c11.38-0.35,18.19,5.98,22.21,15.58c7.7,18.38,9.66,37.55,5.56,57.01
			c-1.31,6.2-3.64,13.01-7.73,17.54c-3.64,4.03-10.37,5.27-15.71,7.79c-1.61,0.76-3.15,1.64-3.36,1.75c2.04,2.64,3.26,4.74,5,6.26
			c0.92,0.81,2.72,0.87,4.12,0.88c11.99,0.05,20.2,7.31,21.04,19.29c1.24,17.78,2.48,35.57,3.08,53.38
			c0.31,9.4-3.32,18.03-6.05,27.06c-5.56,18.37-19.2,17.22-32.7,18.27c-10.27,0.8-20.58,1.29-30.87,1.38
			c-19.6,0.18-39.2-0.05-58.8-0.06c-3.11,0-6.24,0.05-9.32,0.41c-4.61,0.54-6.07-1.21-5.93-5.87c0.48-15.35,0.66-30.71,0.77-46.07
			c0.12-16.74-0.17-33.49,0.21-50.23c0.07-3.03,2.53-6,3.41-7.95c-1.19-2.6-3.44-5.26-3.37-7.86c0.12-4.81,2.12-9.56,2.33-14.38
			c0.13-2.93-2.43-5.94-2.42-8.91c0.02-18.43,0.48-36.86,0.63-55.3c0.01-1.77-1.92-3.69-1.63-5.3c0.63-3.58,2.1-7.01,3-9.8
			c-0.71-1.98-1.88-3.93-2.01-5.93c-0.16-2.57,1.49-5.54,0.69-7.73c-4.26-11.58,3.04-10.79,10.48-10.49
			c6.09,0.24,12.2,0.05,20.76,0.05c-4.75,3.38-7.63,5.42-10.51,7.47c0.3,0.46,0.61,0.92,0.91,1.38c4.3-2.92,8.56-5.9,12.92-8.72
			c1.4-0.91,3.33-2.33,4.56-1.97c14.42,4.22,29.12,1.07,43.65,2.02c2.82,0.19,7.44-0.3,8.12,1.07c3.31,6.68,8.54-0.06,12.17,2.37
			c1.89,1.27,3.84,2.43,5.77,3.65C119.57,496.86,119.25,497.52,118.94,498.18z"/>
		<path fill="#AE6C17" d="M253.78,520.78c-1.97,1.24-3.93,2.47-6.75,4.25c0.93-10.08,1.78-19.11,2.52-28.14
			c0.05-0.56-1.07-1.14-1.17-1.79c-0.55-3.85-1.55-7.55,4.94-7.3c11.64,0.44,23.31,0.12,34.97,0.12c6.08,0,12.16-0.11,18.22,0.09
			c1.26,0.04,3.49,1.17,3.55,1.93c0.34,4.5,0.17,9.04,0.17,14.2c-3.27-0.3-6.16-0.57-9.29-0.86c0.35,0.99,0.49,1.52,0.54,1.51
			c8.92-1.4,8.91,4.37,8.83,10.61c-0.16,12.21-0.05,24.42-0.05,36.57c-1.98,1.12-4.36,2.48-6.74,3.83c0.27,0.43,0.53,0.85,0.8,1.28
			c1.67-0.84,3.34-1.67,5.17-2.59c0.37,5.49,0.69,10.21,1.01,14.94c0.83,0.12,1.65,0.25,2.48,0.37c2.62-9.2,5.06-18.46,7.9-27.59
			c2.33-7.49,5.43-14.74,7.62-22.26c1.93-6.64,3.7-13.45,4.43-20.3c1.11-10.37,2.04-11.72,12.14-11.72c16.61,0,33.21,0,50.57,0
			c-3.15,9.34-5.91,18.01-9.15,26.5c-0.45,1.18-3.3,2.02-5.06,2.04c-9.83,0.1-19.67-0.17-29.5-0.14c-3.44,0.01-6.88,0.51-10.67,0.82
			c-0.21-1.93-0.44-3.94-0.67-6.06c-1.09,2.67-2.16,5.27-3.36,8.18c0.35-0.05,2.1-0.41,3.87-0.58c5.54-0.51,11.08-1.16,16.64-1.37
			c7.65-0.28,15.32-0.3,22.97-0.15c1.22,0.02,2.42,1.56,3.63,2.39c-1.3,0.99-2.55,2.75-3.92,2.84c-4.97,0.35-9.99,0.03-14.98,0.22
			c-1.42,0.05-2.82,0.98-4.22,1.5l-0.06-0.01c6.09-0.17,12.2-0.59,18.27-0.28c1.03,0.05,3.02,4.4,2.7,4.7
			c-6.25,5.7-4.31,14-6.82,20.84c-3.27,8.87-5.54,18.11-8.56,27.08c-1.56,4.62-3.81,9-5.86,13.76c0.17,0.9,0.7,2.59,0.79,4.3
			c0.27,5.04-0.56,10.35,0.76,15.08c1.89,6.76,5.59,12.99,7.92,19.66c1.15,3.29,0.95,7.05,1.57,12.45c-0.09-0.17,0.9,1.5,1.7,3.26
			c1.59,3.47,3.35,6.9,4.56,10.51c2.1,6.26,3.85,12.64,5.71,18.98c4.07,13.82,8.03,27.66,12.21,41.45c1.79,5.91,0.75,8.39-6.24,8.2
			c-16.69-0.46-33.4,0.02-50.09-0.35c-2.44-0.05-6.06-2.17-7-4.28c-2.25-5.07-3.43-10.67-4.69-16.13
			c-1.73-7.48-3.25-15.02-4.62-22.58c-0.81-4.48-4.11-9.74,3.07-12.37c-0.53-1.34-1.02-2.59-1.52-3.83c-1.62,0.66-3.24,1.32-4.89,2
			c-1.43-9.93-2-19.71-6.24-28.69c0.73-0.44,1.58-0.48,2.67-0.83c-1.96-4.81-0.69-9.92-1.36-14.94c-0.53-3.97,4.11-5.28,5.88-8.01
			c-6.04,2.09-6.58,3.85-5.91,10.09c0.48,4.51,2.17,9.47-1.2,13.78c-1.35-3.5-2.7-6.99-4.1-10.64c0,5.17,0.1,10.57-0.08,15.97
			c-0.04,1.07-1.02,2.95-1.72,3.03c-3.15,0.33-6.35,0.14-9.91,0.14c-0.09-0.67-0.27-1.98-0.56-4.04c-3.23,3.67-5.95,6.75-8.97,10.18
			c2.97,0,6.4,0,11.13,0c0.68-0.78,2.62-3.02,4.56-5.25c8.97,1.06,6.37,7.28,5.62,12.92c-0.32,2.4,0.6,4.98,0.19,7.35
			c-0.43,2.48-1.78,4.81-2.74,7.2c-0.55,1.36-1.13,2.7-1.69,4.05c1.26,0.27,2.53,0.55,4.52,0.98c0,13.43,0.05,27.5-0.13,41.57
			c-0.01,0.84-1.87,2.36-2.89,2.38c-9.2,0.18-18.4,0.08-27.6,0.08c-10.66-0.01-21.31,0-31.15,0c0-6.78-0.28-12.94,0.06-19.08
			c0.71-12.82-3.91-26.03,1.96-37.11c-1.37-2.39-3-3.98-2.91-5.47c0.08-1.31,1.87-3.12,3.29-3.63c4.11-1.46,8.41-2.38,12.76-3.91
			c-3.15,0.47-6.49,0.41-9.39,1.53c-4.25,1.64-6.32,0.93-6.1-3.82c0.29-6.28,0.91-12.55,1.02-18.84c0.05-3.01-0.88-6.02-1.11-9.05
			c-0.35-4.63-0.65-9.28-0.59-13.92c0.01-0.96,1.63-2.66,2.61-2.74c7.03-0.59,14.08-0.85,21.1-1.9c-6.3,0.38-12.59,0.94-18.89,0.98
			c-1.38,0.01-3.98-1.82-3.97-2.8c0.06-19.74,0.48-39.47,0.62-59.21c0.02-2.81-1.24-5.61-1.5-8.45c-0.09-1.05,1-2.21,1.55-3.31
			c0.86,0.66,1.73,1.32,2.53,1.93c0.98-1.48,2.07-3.14,3.16-4.8c-0.64-0.02-1.27-0.03-1.91-0.05c0.55-2.93,1.1-5.86,1.66-8.79
			c0.48-1.51,1.99-0.93,2.98-1.46C256.07,519.88,255,520.69,253.78,520.78z"/>
		<path fill="#AE6C17" d="M840.64,705.51c-3.38-2.18-8.31-3.67-9.67-6.74c-1.14-2.56,1.91-6.98,3.15-10.72
			c-0.45-0.14-1.97-0.61-3.47-1.07c-0.58,1.15-1.14,2.26-2.63,5.19c-1.19-6.65-2.39-11.54-2.87-16.51
			c-0.8-8.27-1.39-16.59-1.43-24.89c-0.01-1.32,3.33-2.65,5.13-3.98c0-0.82-0.36-1.29-1.23-1.27c-1.53-0.16-4.21,0.01-4.36-0.53
			c-0.45-1.6-0.32-3.69,0.42-5.17c0.48-0.97,2.4-1.66,3.7-1.7c5.22-0.16,10.46-0.12,15.69,0.03c5.53,0.16,11.07,0.96,16.57,0.65
			c3.93-0.22,7.78-1.78,11.66-2.79c3.95-1.03,5.98-0.06,5.71,4.53c-0.37,6.36-0.64,12.75-0.36,19.11
			c0.24,5.56,1.48,11.07,1.93,16.63c0.16,1.97-0.69,4.03-1.12,6.27c8.25,6.67,18.27,3.13,19.92-7.78
			c0.95-6.31,0.82-12.78,1.34-19.16c0.06-0.72,1.19-1.35,1.19-1.36c-1.41-2.96-2.12-6.24-4.1-8.25
			c-5.12-5.19-10.61-10.07-16.33-14.6c-4.74-3.75-10.2-6.57-14.93-10.32c-1.4-1.11-1.42-3.98-2.17-6.35
			c-4.79,0.83-14.35-3.67-18.16-8.79c-2.22-2.99-6.18-4.75-8.15-7.84c-2.38-3.73-3.56-8.24-5-12.5c-0.18-0.53,1.26-1.6,1.95-2.42
			c0.66,0.5,1.22,1.1,1.83,1.64c-0.61-0.55-1.17-1.16-1.92-1.56c-0.97-3.6-1.94-7.21-2.33-8.65c0.84-9.1,1.53-16.5,2.25-24.28
			c-2.75,2.01-5.22,4.04-7.93,5.66c-0.94,0.56-2.86,0.62-3.63,0.01c-0.68-0.54-0.68-2.36-0.49-3.53c1.34-8.43,3.1-16.81,4.14-25.28
			c1.27-10.28,2.81-12.22,10.77-11.22c0.83,0.1,1.56,0.81,2.39,1.07c1.65,0.51,3.31,1.09,5,1.29c2.03,0.24,4.1,0.04,6.13,0.27
			c0.13,0.01,0.02,2.13,0.02,3.26c2.38-0.79,5.2-1.72,9.53-3.15c-5.1-0.5-9.1-0.63-12.96-1.42c-1.46-0.3-2.61-2.15-2.96-2.46
			c-1.47,0.39-2.63,0.88-3.81,0.95c-1.02,0.06-2.07-0.36-3.11-0.55c-2.04-0.36-4.09-0.71-6.14-1.06c0.97-1.99,1.68-4.16,2.95-5.94
			c4.4-6.21,10.4-6.78,17.76-3.86c-2.87-4.2-5.38-7.18,2.07-8.16c4.3-0.56,8.16-4.22,12.32-6.29c1.25-0.62,2.87-0.87,4.28-0.77
			c13.57,1.01,27.11,2.67,40.69,3.1c17.82,0.56,29.09,10.48,35.29,25.55c3.28,7.97,2.5,17.64,3.36,26.56
			c0.3,3.05-0.77,6.43,0.16,9.2c2.85,8.48-2.03,8.95-8.19,8.96c-12.68,0.04-25.36,0.2-38.04,0.48c-4.63,0.1-7.82,0.34-6.83-6.48
			c0.83-5.74-1.06-11.84-1.43-17.79c-0.13-2.14,0.65-4.34,1.02-6.51c2.08,0.78,4.16,1.57,6.26,2.32c0.62,0.22,1.29,0.32,3.12-0.97
			c-4.05-2.05-8.09-4.09-12.14-6.14c1.02-0.93,2.04-1.86,3.07-2.79c-3.2,1.35-6.45,2.59-9.58,4.06c-5.75,2.69-9.21,6.67-8.02,13.65
			c0.75,4.41,2.78,10.27,0.81,13.15c-5.18,7.6,0.38,7.06,4.68,9.47c4.66,2.61,8.08,7.33,12.39,10.68c2.44,1.9,5.67,2.75,8.36,4.38
			c5.88,3.57,12.63,6.38,17.23,11.22c7.99,8.41,23.1,12.44,19.08,29.18c-1.22,5.08-0.19,10.69,0.61,16.07c0-8.74,0-17.48,0-26.59
			c6.11,3.81,14.12,23.77,11.98,29.26c-0.44,1.13-2.12,1.78-3.23,2.65c-0.42,1.04,0.39,0.79,0.9,0.85c1.4,1.18,2.8,2.37,4.19,3.55
			c-1.08,0.83-2.15,1.65-3.22,2.47c4.48,10.19,4.53,20.73,0.51,31.61c0.19,0.6,0.94,1.97,0.93,3.34c0,0.83-1.08,2.27-1.83,2.38
			c-6.59,0.9-13.2,1.83-19.83,2.21c-6.31,0.36-12.66,0.08-19.14,0.78c4.4,0,8.81,0.21,13.2-0.05c7.97-0.47,15.92-1.32,23.9-1.69
			c1.01-0.05,3.19,2.24,3,2.88c-1.28,4.2-2,9.33-4.87,12.15c-14.18,13.93-30.36,23.98-51.43,22.68c-10.28-0.63-20.69-0.22-30.8-1.81
			c-4.66-0.73-8.62-5.37-13.13-7.81c-3.12-1.69-6.8-2.36-9.9-4.09c-0.89-0.5-0.6-3.1-0.85-4.73
			C841.81,705.68,841.13,705.67,840.64,705.51z"/>
		<path fill="#AE6C17" d="M418.07,580.13c3.83,0.03,4.71,2.02,3.84,5.45c-0.22,0.86,0.12,2.59,0.59,2.75
			c0.97,0.33,2.2-0.14,3.62-0.32c0.26,1.55,0.64,3.75,1.16,6.81c1.12-3.55,1.96-6.21,2.81-8.88c-7.18-4.7-10.06-13.21-7.69-21.72
			c1.51-5.42-0.15-9.92-4.38-13.84c-1.29-1.2-1.29-3.91-1.64-5.97c-0.15-0.91,0.51-1.93,0.46-2.89
			c-0.56-12.54-1.22-25.08-1.75-37.62c-0.16-3.86-0.24-7.76,0.14-11.59c0.12-1.22,1.81-3.19,2.87-3.25
			c5.71-0.32,11.44-0.16,17.16-0.16c18.05,0,36.1,0,54.15,0c5.8,0,11.61,0,19.92,0c-6.21,3.2-10.41,5.37-14.6,7.54
			c0.04,0.32,0.08,0.65,0.12,0.97c5.82-0.67,11.63-1.41,17.45-1.96c1.12-0.1,3.32,0.54,3.33,0.89c0.2,6.73,0.15,13.46-1.58,19.92
			c0.67,1.09,1.87,2.16,1.92,3.28c0.22,4.62,0.27,9.27-0.05,13.88c-0.07,0.95-1.97,2.49-3.07,2.53c-10.49,0.37-21,0.31-31.48,0.86
			c-1.55,0.08-4.1,2.58-4.26,4.15c-0.73,7.16-0.39,14.44-1.34,21.56c-0.21,1.6-3.94,2.93-6.25,3.94c-0.81,0.35-2.21-0.66-4.48-1.43
			c0.53-0.39-0.3,0.5-1.33,0.91c-1.51,0.61-3.15,0.89-4.73,1.31c1.8,0.11,3.6,0.28,5.4,0.33c2.5,0.06,5.18-0.54,7.44,0.2
			c1.69,0.55,3.87,2.72,3.93,4.25c0.06,1.34-2.33,3.66-3.98,4.01c-3.02,0.66-6.33-0.1-9.45,0.25c-5.8,0.66-8.26-1.5-6.62-7.89
			c-3.5,0.19-6.48,0.35-9.45,0.51c0.05,0.17,0.1,0.33,0.15,0.5c2.89,0.16,5.81,0.18,8.64,0.72c0.29,0.05,0.56,4.38-0.11,4.7
			c-3.44,1.61-7.2,2.55-10.06,3.48c-0.72-0.46-0.11,0.27,0.36,0.18c9.53-1.74,9.06,3.45,8.37,10.53c-0.88,9.17-0.22,18.5,1.17,27.91
			c0.28-2.91,0.76-5.83,0.79-8.74c0.1-9.16-0.11-18.34,0.2-27.49c0.04-1.31,2.44-3.74,3.49-3.61c5.73,0.71,11.31-1.35,17.43,2.44
			c4.62,2.87,12.23,1.08,18.5,1.1c5.63,0.01,11.26-0.49,16.88-0.4c0.75,0.01,2.07,2.2,2.08,3.38c0.03,2.78-1.69,6.08-0.7,8.26
			c2.25,4.97,2.67,8.9-1.01,11.12c1.01,3.29,2.33,5.67,2.37,8.06c0.22,14.79,0.12,14.8-14.47,14.84c-4.25,0.01-8.52,0.21-12.76-0.1
			c-1.76-0.13-3.43-1.36-6.18-2.54c-2.04,4.39-5.09,9.6-6.79,15.22c-0.82,2.73,1.26,6.21,1.38,9.37c0.25,6.3,0.17,12.63-0.03,18.93
			c-0.04,1.33-1.21,2.61-0.87,1.94c1.04,5.08,2.03,8.49,2.36,11.97c0.35,3.65,0.08,7.36,1.43,11.19c0.22-2.16,1.18-4.57,0.54-6.43
			c-2.43-7.02-1.08-8.47,6.19-8.17c6.84,0.28,13.74-1.14,20.6-1c1.93,0.04,5.13,2.69,5.44,4.54c1.01,5.94,0.94,12.06,0.94,18.13
			c0-6.35-0.18-12.71,0.15-19.05c0.07-1.33,2.01-2.57,3.1-3.84c1.26,1.28,3.5,2.47,3.62,3.85c0.84,9.91,1.41,19.85,1.61,29.79
			c0.02,1.19-2.51,2.71-4.14,3.49c-0.57,0.27-2.76-1.13-2.88-1.96c-0.67-4.4-0.52-4.42-3.57-3.95c0.67,2.57,1.39,5.32,2.12,8.08
			c-0.26,0.1-0.52,0.19-0.78,0.29c0.45,2.18,1.39,4.43,1.13,6.52c-0.12,0.94-2.64,2.25-4.08,2.26c-24.19,0.17-48.39,0.16-72.58,0.19
			c-5.5,0.01-11.02,0.34-16.47-0.2c-1.71-0.17-4.54-2.72-4.54-4.19c-0.06-16.44,0.58-32.88,0.55-49.31
			c-0.05-23.79-0.62-47.58-0.63-71.38c0-3.98,1.7-7.96,2.61-11.94c-0.3-0.4-0.35-1.12-1.13-0.93c-0.79-0.98-1.59-1.97-2.38-2.95
			c0.97-0.43,2.1-0.67,2.85-1.33c0.57-0.5,0.67-1.55,0.98-2.35C418.15,580.06,418.07,580.13,418.07,580.13z"/>
		<path fill="#AE6C17" d="M229.15,573.98c0.5,12.88,1.3,25.75,1.44,38.63c0.23,20.22,0,40.45,0,60.67c0,15.36-0.08,30.72,0.16,46.08
			c0.06,4.21-1.34,5.88-5.45,5.29c-4.91-0.7-9.84-2.05-14.74-1.96c-7.31,0.13-14.59,1.4-21.91,1.92c-5.31,0.38-10.66,0.51-15.97,0.3
			c-1.09-0.04-2.97-2.12-2.99-3.29c-0.21-11.35-0.24-22.7,0.15-34.04c0.03-1,3.38-1.88,4.29-2.35c-1.39-2.52-4.71-5.83-4.1-8.09
			c0.99-3.71,4.52-6.75,7.05-10.16c0.04,0.02-1.07-0.91-1.57-0.65c-6.9,3.57-5.68-2.23-5.6-5.26c0.14-4.96,1.47-9.87,1.73-14.84
			c0.1-1.89-1.92-3.85-1.99-5.8c-0.25-7.48-0.24-14.98,0.06-22.46c0.04-1.03,2.27-1.97,3.48-2.95c2.9,2.7,5.78,5.42,8.48,8.31
			c-2.57-3.03-5.43-5.78-8.57-8.23c-1.18-4.37-3.27-8.72-3.38-13.12c-0.29-12.05,0.42-24.12,0.43-36.18
			c0.01-10.52-0.5-21.05-0.58-31.57c-0.11-13.62-0.17-27.24,0.18-40.85c0.04-1.52,2.59-3.67,4.39-4.28
			c2.23-0.75,4.89-0.18,7.37-0.18c14.86,0,29.72,0.14,44.58-0.09c4.01-0.06,4.77,1.57,4.59,5.01c-0.54,10.82-1.31,21.64-1.26,32.46
			c0.05,14.18,0.85,28.35,1.16,42.53c0.04,1.74-0.96,3.51-1.48,5.26C229.09,574.1,229.15,573.98,229.15,573.98z"/>
		<path fill="#010101" d="M424.1,289.08c6.83,0,13.66-0.11,20.48,0.1c1.2,0.04,3.33,1.36,3.37,2.16c0.3,6.74,0.56,13.53,0.13,20.25
			c-0.42,6.64-1.25,13.31-2.76,19.77c-0.43,1.86-3.81,4.28-5.87,4.3c-8.2,0.11-16.4-0.83-24.61-0.95c-3.7-0.06-7.47,1.44-11.11,1.12
			c-1.67-0.15-4.4-2.93-4.45-4.59c-0.38-12.45-0.4-24.92,0-37.37c0.05-1.65,3.05-4.43,4.86-4.58
			C410.75,288.74,417.44,289.08,424.1,289.08z"/>
		<path fill="#AE6C17" d="M418.15,580.06c-0.96-0.39-2.75-0.77-2.76-1.18c-0.16-9.22-0.12-18.44-0.12-27.66
			c0.79-0.21,1.57-0.42,2.36-0.64c1.61,3.82,5.65,9.42,4.4,11.13c-4.34,5.9-3.4,12.17-3.95,18.42
			C418.07,580.13,418.15,580.06,418.15,580.06z"/>
		<path fill="#AE6C17" d="M820.47,569.11c3.27-3.52,5.38-5.81,7.5-8.09c0.74,1.02,2.34,2.39,2.08,2.99
			c-1.16,2.76-2.8,5.34-4.48,7.83C825.51,571.96,823.32,570.65,820.47,569.11z"/>
		<path fill="#AE6C17" d="M512.05,719.67c2.18-2.3,3.47-3.65,4.76-5c0.95,1.73,2.58,3.44,2.64,5.19c0.05,1.55-1.66,3.16-2.59,4.75
			C515.55,723.27,514.25,721.93,512.05,719.67z"/>
		<path fill="#AE6C17" d="M827.1,586.05c-0.41-3.38-0.87-6.76-1.19-10.15c-0.06-0.62,0.44-1.29,0.69-1.93
			c1,0.38,2.84,0.71,2.87,1.16c0.24,3.56,0.13,7.15,0.13,10.73C828.76,585.92,827.93,585.98,827.1,586.05z"/>
		<path fill="#AE6C17" d="M509.14,487.84c2.51,1.92,4.62,3.54,6.74,5.16c-2.69,0.41-5.39,0.82-8.99,1.37
			C507.85,491.56,508.37,490.06,509.14,487.84z"/>
		<path fill="#010101" d="M629.5,526.79c-1.15-2.04-2.44-3.33-2.38-4.56c0.04-0.92,2.08-2.66,2.76-2.46
			c1.26,0.38,2.98,1.89,3.01,2.97C632.91,523.83,631.12,524.97,629.5,526.79z"/>
		<path fill="#FEFEFD" d="M479.64,160.64c2.66-12.32,5.32-24.67,7.98-37c2.15-0.83,5.1-1.96,8.04-3.1
			c-12.29,11.89-6.54,27.37-7.72,41.32C485.33,161.48,482.72,161.1,479.64,160.64z"/>
		<path fill="#FEFEFD" d="M317.86,308.71c-2.11-3.6-4.22-7.2-6.33-10.8c0.59-0.51,1.18-1.03,1.77-1.54
			c2.43,2.75,4.64,5.75,7.38,8.14c1.37,1.2,3.72,1.28,5.02,1.68c1.55,2.88,3.37,6.04,4.91,9.32c0.32,0.67-0.16,2-0.68,2.73
			c-2.06,2.88-4.29,5.64-6.4,8.39c0-4.46,0.29-9.14-0.15-13.75c-0.16-1.71-2.05-3.26-3.15-4.88
			C319.44,308.25,318.65,308.48,317.86,308.71z"/>
		<path fill="#FEFEFD" d="M341.01,348.17c1.46,0.07,2.7,0.13,3.79,0.18c-1.28,5.47-3.26,10.79-3.62,16.21
			c-0.62,9.59-0.12,19.25-0.44,28.87c-0.05,1.46-2,2.85-4.03,5.53C338.23,381.03,339.58,365.05,341.01,348.17z"/>
		<path fill="#FEFEFD" d="M285.55,318.55c-2.68,0.65-4.69,1.14-7.08,1.72c-0.92-1.34-2-2.91-3.32-4.83
			c2.13,0.58,4.34,1.94,5.52,1.32c1.98-1.03,4.67-3.33,4.66-5.08c-0.05-10.29-0.79-20.58,0.22-30.91
			C285.55,293.29,285.55,305.81,285.55,318.55z"/>
		<path fill="#FEFEFD" d="M250.58,112.24c5.38,4.07,10.91,7.97,16.06,12.31c1.43,1.2,2.95,4.55,2.33,5.41
			c-1.13,1.58-3.82,2.04-3.96,2.1c-4.05-4.77-7.11-8.27-10.05-11.87c-1.8-2.21-3.42-4.57-5.12-6.86
			C249.97,112.89,250.21,112.52,250.58,112.24z"/>
		<path fill="#FEFEFD" d="M349.05,71.02c-0.63-1.65-1.4-3.66-2.33-6.1c1.59-2.18,3.78-5.2,5.93-8.16c1.62,2.07,3.46,4.43,5.18,6.63
			C354.92,65.92,351.92,68.53,349.05,71.02z"/>
		<path fill="#FEFEFD" d="M274.91,220.01c2.66,11.08,5.33,22.17,7.99,33.25c-0.65,0.15-1.29,0.3-1.94,0.45
			c-2.59-11.1-5.19-22.2-7.78-33.3C273.76,220.27,274.33,220.14,274.91,220.01z"/>
		<path fill="#FEFEFD" d="M311.19,318.24c2.44,0.22,5.62,1.06,5.05,6.72c-0.26,2.6,1.14,5.42,1.99,8.08c0.8,2.51,1.86,4.95,2.8,7.41
			c-0.69,0.28-1.38,0.55-2.07,0.83C316.31,333.45,313.67,325.62,311.19,318.24z"/>
		<path fill="#FEFEFD" d="M492.01,189.4c-1.23,2.03-2.54,4.2-3.84,6.36c-0.57-0.06-1.14-0.13-1.72-0.19c0-7.75,0-15.49,0-23.24
			C490.23,177.65,483.9,185.27,492.01,189.4z"/>
		<path fill="#FEFEFD" d="M348.62,168.44c0.47,2.26,0.79,3.8,1.1,5.28c-3.48-1.18-7-2.37-10.52-3.57c-0.42,0.63-0.84,1.26-1.26,1.89
			c-0.71-3.69-1.42-7.39-2.13-11.08C338.62,165.77,341.23,170.93,348.62,168.44z"/>
		<path fill="#FEFEFD" d="M338.23,230.66c0.76-8.25,1.53-16.49,1.95-21.06C338.61,214.2,345.18,223.14,338.23,230.66z"/>
		<path fill="#FEFEFD" d="M505.32,200.12c0.85,1.76,1.54,3.19,2.25,4.67c-2.27,2.04-4.87,4.39-7.14,6.44
			C501.91,207.87,503.59,204.05,505.32,200.12z"/>
		<path fill="#FEFEFD" d="M414.79,129.9c0.81-3.64,1.61-7.29,2.42-10.93c0.36,0.06,0.71,0.11,1.07,0.17
			c-0.37,3.74-0.73,7.48-1.1,11.21C416.38,130.2,415.58,130.05,414.79,129.9z"/>
		<path fill="#FEFEFD" d="M382.65,73.82c2.68,0.59,5.35,1.19,7.6,1.68c0.12,1.71,0.13,1.86,0.14,2.01
			c-2.74-0.52-5.47-1.03-8.21-1.55C382.33,75.24,382.49,74.53,382.65,73.82z"/>
		<path fill="#FEFEFD" d="M249.85,113.34c-0.33-0.33-0.67-0.67-1-1c0.08-0.46,0.31-0.83,0.67-1.12c0.35,0.34,0.71,0.69,1.06,1.03
			C250.34,112.61,250.1,112.97,249.85,113.34z"/>
		<path fill="#FEFEFD" d="M248.98,110.67c0.28,0.08,0.46,0.26,0.54,0.54c-0.22,0.37-0.45,0.75-0.67,1.12c-0.33-0.33-0.67-0.67-1-1
			C248.23,111.12,248.61,110.9,248.98,110.67z"/>
		<path fill="#FEFEFD" d="M611.01,387.45c1.35-2.77,2.85-5.87,4.36-8.97c1.49,0.65,3.16,1.38,4.83,2.12
			c-5.49,8.68-6.84,20.21-2.47,19.81c5.67-0.51,11.28-1.68,17.49-1.25c-4.29,1.25-8.66,2.3-12.85,3.84
			c-2.25,0.82-5.49,2.1-5.99,3.84c-0.8,2.74,0.37,6.04,0.63,9.1c0.29,3.33,0.74,6.69,0.56,10c-0.04,0.69-2.54,1.25-4.44,2.12
			c0.19-3.77,0.52-6.73,0.42-9.67c-0.07-1.84-0.79-3.65-1.22-5.48c-1.86,0.79-3.74,1.53-5.56,2.39c-0.72,0.34-1.3,0.97-3.13,0.74
			c1.02-1.79,1.65-4.02,3.12-5.29c6.2-5.39,7.33-12.39,6.69-19.93C613.34,389.57,611.75,388.44,611.01,387.45z"/>
		<path fill="#FEFEFD" d="M615.5,578.5c-5.39,8.09-10.56,15.85-15.73,23.61c-0.39-0.19-0.77-0.38-1.16-0.57
			c1.36-2.79,2.8-5.56,4.06-8.39c1.54-3.46,3.37-6.87,4.29-10.51c1.07-4.19,2.02-9.16-6.12-7.79c1.17-1.04,2.34-2.08,1.79-1.59
			c4.39,0.7,6.92,1.1,9.44,1.51c-0.1-2.28-0.51-4.6-0.21-6.82c0.37-2.73,1.34-5.38,2.01-7.94c7.07,7.87,6.65-3.36,12.49-5.26
			c-1.88,3.57-2.95,5.8-4.21,7.93c-2.5,4.22-5.28,8.29-7.51,12.64C614.14,576.32,615.42,578.23,615.5,578.5z"/>
		<path fill="#FEFEFD" d="M558.6,394.44c2.01,10.41,4.02,20.82,6.41,33.2c-5.78,8.91-5.27,21.07-4.12,33.81
			c0.55,6.07-2.76,12.49-3.97,17.29c1.31-27.33,2.67-55.9,4.03-84.46C560.17,394.33,559.38,394.39,558.6,394.44z"/>
		<path fill="#FEFEFD" d="M638.45,460.58c-3.61,1.36-6.3,2.37-10.44,3.93c4.89-16.29,9.53-31.77,14.17-47.25
			c0.44,0.06,0.88,0.11,1.32,0.17C641.79,432.11,640.07,446.79,638.45,460.58z"/>
		<path fill="#FEFEFD" d="M572.8,586.15c-6.06,10.2-11.67,19.64-18.39,30.95c-0.2-3.04-0.73-4.61-0.32-5.87
			c2.74-8.5,5.69-16.93,8.58-25.42C564.92,594.85,568.61,587.18,572.8,586.15z"/>
		<path fill="#FEFEFD" d="M690.85,332.85c2-4.99,0.33-7-5.4-5.78c1.92-4.07,0.81-8.9,7.19-10.37c2.46-0.56,3.69-6.48,6.22-9.91
			c-0.41,1.93-0.57,3.95-1.28,5.76c-1.15,2.92-2.72,5.66-4.01,8.53c-1.96,4.36-1.53,7.26,3.96,6.45c1.67,3.93,3.23,7.59,5.27,12.39
			c-3.28-0.76-4.98-1.15-5.98-1.38c-0.16-2.21,0.39-4.88-0.6-5.7c-1.1-0.91-3.6-0.14-5.49-0.1L690.85,332.85z"/>
		<path fill="#FEFEFD" d="M539.69,331.54c1.74-0.32,3.48-0.64,5.35-0.98c1.01,3.76-3.81,12.04,6.53,8.09
			c-0.92,3.22-1.75,6.13-2.77,9.69c-2.4,0-5.38,0-7.6,0c1.09-4.04,2.75-7.56,2.73-11.08c-0.01-1.96-2.79-3.9-4.32-5.85
			c0.22-0.11,0.34-0.16,0.34-0.16C540.06,331.21,539.98,331.31,539.69,331.54z"/>
		<path fill="#FEFEFD" d="M584.34,445.66c0.88-9.09,1.75-18.18,2.63-27.27c0.92,0.08,1.85,0.16,2.77,0.23
			c-0.73,9.09-1.45,18.18-2.18,27.27C586.48,445.81,585.41,445.73,584.34,445.66z"/>
		<path fill="#FEFEFD" d="M641.99,293.32c-0.87-4.13-1.71-8.13-2.57-12.19c2.5,0,5.87,0,9.51,0
			C652.09,287.63,647.18,290.64,641.99,293.32z"/>
		<path fill="#FEFEFD" d="M579.87,287.68c7.55,1.82,12.99-0.96,16.43-8c0.32-0.66,2.44-0.44,3.86,0.79
			c-5.66,4.69-11.32,9.39-16.65,13.81C582.08,291.7,581.13,289.96,579.87,287.68z"/>
		<path fill="#FEFEFD" d="M494.11,321.61c-2.93-0.58-6.41-1.27-7.86-1.56c3.02-2.14,7.72-5.48,12.55-8.9
			c0.27,1.01,0.68,2.59,0.88,3.34C497.6,317.15,495.73,319.54,494.11,321.61z"/>
		<path fill="#FEFEFD" d="M565.03,310.99c-3.02,5.41-6.03,10.82-9.05,16.23c-0.8-0.43-1.61-0.85-2.41-1.28
			c1.09-2.39,1.75-5.13,3.37-7.09c2.37-2.87,5.42-5.18,8.18-7.73C565.12,311.12,565.03,310.99,565.03,310.99z"/>
		<path fill="#FEFEFD" d="M630.58,574.62c0,2.93,0,5.86,0,8.79c-1.2,0.3-2.44,0.6-5.05,1.25c1.54-3.98,2.78-7.2,4.02-10.41
			C629.89,574.37,630.23,574.5,630.58,574.62z"/>
		<path fill="#FEFEFD" d="M638.93,509.61c2.55-3.24,5.1-6.49,8.03-10.22c0.28,1.41,1.17,3.16,0.67,3.76
			c-2.32,2.78-5.02,5.25-7.59,7.83C639.67,510.53,639.3,510.07,638.93,509.61z"/>
		<path fill="#FEFEFD" d="M690.73,332.73c0.8,1.89,1.6,3.79,2.44,5.76c-1.33,1.14-3,2.57-4.8,4.11c-0.92-0.52-2.27-1.27-3.68-2.06
			c1.95-2.42,4.07-5.04,6.17-7.68C690.85,332.85,690.73,332.73,690.73,332.73z"/>
		<path fill="#FEFEFD" d="M588.47,411.12c-0.27-0.24-1.22-1.09-2.42-2.16c1.66-2.5,3.58-5.42,5.51-8.33
			c0.33,0.22,0.66,0.45,0.99,0.67C591.06,404.89,589.56,408.48,588.47,411.12z"/>
		<path fill="#FEFEFD" d="M583.44,338.46c-1.14,5.1-1.83,8.19-2.62,11.7c-1.1-0.95-2.07-1.78-3.13-2.69
			C579.28,344.97,580.82,342.56,583.44,338.46z"/>
		<path fill="#FEFEFD" d="M610.27,269.89c0.92-1.54,1.7-3.2,2.85-4.53c0.28-0.32,1.81,0.44,2.77,0.71
			c-0.99,1.71-1.98,3.43-2.97,5.14C612.04,270.77,611.16,270.33,610.27,269.89z"/>
		<path fill="#FEFEFD" d="M635.26,605.06c0.75,3.81,1.51,7.61,2.26,11.42c-0.38,0.08-0.75,0.16-1.13,0.24
			c-0.83-3.78-1.66-7.56-2.49-11.34C634.35,605.27,634.81,605.17,635.26,605.06z"/>
		<path fill="#FEFEFD" d="M687.95,348.05c0.04-0.56-0.03,0.41-0.07,0.96c-2.11-0.17-4.13-0.34-6.76-0.55
			c-0.21-1.23-0.54-3.11-0.77-4.47C682.84,345.31,684.87,346.4,687.95,348.05z"/>
		<path fill="#FEFEFD" d="M637.09,535.08c0.18-0.15,0.35-0.3,0.53-0.45c0.01,0.13,0.01,0.27,0.02,0.4
			c-0.21-0.03-0.41-0.06-0.62-0.09C637.01,534.95,637.09,535.08,637.09,535.08z"/>
		<path fill="#FEFEFD" d="M639.76,530.89c-0.23-0.12-0.44-0.23-0.65-0.34c0.11-0.1,0.23-0.31,0.32-0.29
			c0.23,0.05,0.44,0.18,0.66,0.29C639.98,530.66,639.88,530.77,639.76,530.89z"/>
		<path fill="#FEFEFD" d="M572.87,585.58c-0.06,0.11-0.12,0.23-0.18,0.34c-0.16-0.12-0.33-0.24-0.49-0.35
			c0.11-0.11,0.23-0.22,0.34-0.33C572.65,585.34,572.76,585.46,572.87,585.58z"/>
		<path fill="#FEFEFD" d="M539.6,331.41l0.23-0.02c0,0-0.13,0.15-0.13,0.15S539.6,331.41,539.6,331.41z"/>
		<path fill="#FEFEFD" d="M565.12,311.12c0.25-0.25,0.5-0.5,0.75-0.75c0.05,0.15,0.1,0.3,0.14,0.46c-0.33,0.06-0.66,0.11-0.99,0.17
			C565.03,310.99,565.12,311.12,565.12,311.12z"/>
		<path fill="#FEFEFD" d="M734.93,575.57c0-11.28,0.09-22.41-0.07-33.55c-0.04-2.54-0.91-5.06-1.39-7.59
			c-1.94,1.07-3.79,2.39-5.84,3.14c-1.65,0.6-3.56,0.51-5.66-0.71c4.93-2.87,9.73-5.99,14.82-8.55c6.21-3.12,13.47,2.25,14.18,10.48
			c0.64,7.37,1.04,14.78,1.26,22.18C752.35,565.38,741.75,574.58,734.93,575.57z"/>
		<path fill="#FEFEFD" d="M718.15,669.15c0.58,1.77,1.17,3.54,1.72,5.24c-2.28-0.17-4.82-0.36-8.45-0.63
			c2.41-2.01,4.3-3.58,6.19-5.15C717.98,668.6,718.16,668.78,718.15,669.15z"/>
		<path fill="#FEFEFD" d="M765.35,620.27c-3.79-2.76-5.9-4.3-8-5.83c1.82-0.36,4.01-1.48,5.35-0.84
			C763.85,614.17,764.04,616.73,765.35,620.27z"/>
		<path fill="#FEFEFD" d="M780.6,627.72c1.13,2.7,2.09,5.02,3.06,7.34c-0.48,0.3-0.95,0.6-1.43,0.9c-1.34-1.96-2.68-3.93-4.23-6.21
			C778.27,629.54,779.39,628.67,780.6,627.72z"/>
		<path fill="#FEFEFD" d="M767.47,575.81c-1.77-2.39-3.54-4.78-5.3-7.16c0.42-0.31,0.85-0.62,1.27-0.93
			c1.7,2.52,3.41,5.05,5.11,7.57C768.18,575.46,767.82,575.64,767.47,575.81z"/>
		<path fill="#FEFEFD" d="M786.05,525.15c2.19,2.24,4.37,4.47,6.56,6.71c-0.65,0.49-1.31,0.99-1.96,1.48
			c-1.56-2.75-3.11-5.5-4.67-8.26L786.05,525.15z"/>
		<path fill="#FEFEFD" d="M723.21,598.24c1.77,0,3.54,0,5.32,0c0.05,0.56,0.09,1.12,0.14,1.68c-1.82,0.09-3.64,0.17-5.46,0.26
			C723.21,599.53,723.21,598.89,723.21,598.24z"/>
		<path fill="#FEFEFD" d="M725.11,585.07c-1.81-1.3-3.62-2.6-5.43-3.89c0.48-0.53,0.97-1.05,1.45-1.58c1.3,1.86,2.6,3.73,3.89,5.59
			C725.03,585.19,725.11,585.07,725.11,585.07z"/>
		<path fill="#FEFEFD" d="M783.54,626.39c-0.64,0.36-1.28,0.71-1.92,1.07c-0.13-0.23-0.27-0.46-0.4-0.69
			c0.63-0.37,1.26-0.75,1.89-1.12C783.26,625.9,783.4,626.15,783.54,626.39z"/>
		<path fill="#FEFEFD" d="M725.03,585.19c1.05,0.49,2.1,0.98,3.14,1.46c-0.24,0.35-0.47,0.69-0.71,1.04
			c-0.79-0.87-1.57-1.74-2.36-2.62C725.11,585.07,725.03,585.19,725.03,585.19z"/>
		<path fill="#FEFEFD" d="M719.14,668.13c-0.33,0.34-0.66,0.67-0.99,1.01c-0.19-0.17-0.36-0.35-0.53-0.54
			c0.54-0.14,1.09-0.28,1.64-0.41C719.25,668.2,719.14,668.13,719.14,668.13z"/>
		<path fill="#FEFEFD" d="M783.99,591.98c0.27-0.18,0.55-0.37,0.82-0.55c-0.06,0.38-0.13,0.77-0.19,1.15
			C784.4,592.4,784.19,592.2,783.99,591.98z"/>
		<path fill="#FEFEFD" d="M785.97,525.08l0-0.12c0,0,0.08,0.19,0.07,0.19C786.05,525.15,785.97,525.08,785.97,525.08z"/>
		<path fill="#FEFEFD" d="M719.25,668.2c-0.07-0.23-0.13-0.45-0.2-0.68c0.2,0,0.41,0,0.61,0c-0.18,0.2-0.35,0.41-0.53,0.61
			C719.14,668.13,719.25,668.2,719.25,668.2z"/>
		<path fill="#FEFEFD" d="M90.54,649.01c0,5.83,0.56,11.72-0.17,17.45c-0.63,4.89-1.79,10.27-4.54,14.14
			c-1.72,2.42-6.79,2.68-10.46,3.17c-0.43,0.06-2.13-4.52-2.16-6.96c-0.2-16.68-0.23-33.37,0.07-50.04
			c0.03-1.91,2.46-5.44,3.65-5.38c4.6,0.22,11.4-2.13,12.05,5.68c0.61,7.27,0.13,14.62,0.13,21.94
			C89.57,649.01,90.05,649.01,90.54,649.01z"/>
		<path fill="#FEFEFD" d="M69.86,557.89c1.27-8.22,2.46-16.44,3.91-24.63c0.17-0.99,1.7-2.46,2.6-2.45c1.95,0.01,5,0.22,5.65,1.41
			c3.16,5.79,5.67,11.93,8.45,17.93c0.51,1.1,1.18,2.13,2.66,4.77c0.72-3.64,1.1-5.58,1.56-7.92c1.17,2.32,2.24,4.44,3.53,6.97
			c-11.77-1.78-7.38,7.22-7.78,12.16c-0.84,10.45-2.85,13.08-13.1,12.86c-1.25-0.03-3.45-2.1-3.52-3.31
			c-0.35-6.41-0.17-12.84-0.17-20.24c-1.73,1.43-2.55,2.11-3.38,2.8C70.14,558.13,70,558.01,69.86,557.89z"/>
		<path fill="#FEFEFD" d="M27.37,640.54c-1.13-1.82-2.23-3.59-3.31-5.32c3.27-1.78,9.61-3.15,11.69-6.9
			c2.27-4.09,0.89-10.4,0.44-15.68c-0.12-1.35-2.71-2.5-2.62-2.42c0.67-3.66,1.84-6.67,1.6-9.55c-0.42-4.9-1.72-9.73-2.66-14.58
			c0.76-0.1,1.52-0.2,2.28-0.3c0.69,8.32,1.58,16.63,2.01,24.97c0.29,5.64-0.21,11.32-0.02,16.97c0.04,1.17,1.58,2.28,2.63,3.69
			c-0.61,0.78-1.51,1.95-2.41,3.11C29.03,629.66,30.35,639.13,27.37,640.54z"/>
		<path fill="#FEFEFD" d="M91.19,508.56c0.67,1.27,1.33,2.54,2.18,4.16c2.85-1.61,5.48-3.09,8.11-4.58c0.23,0.35,0.46,0.7,0.68,1.05
			c-2.53,1.82-5.06,3.64-7.72,5.56c2.02,6.52,4.15,13.39,6.28,20.26c-0.78,0.21-1.56,0.43-2.34,0.64c-1.19-4.68-2.08-9.46-3.67-14
			c-1.5-4.28-3.75-8.29-5.67-12.42C89.76,509,90.47,508.78,91.19,508.56z"/>
		<path fill="#FEFEFD" d="M19.67,690.35c-1.26-2.74-3.26-5.69-3.91-8.91c-0.55-2.69,0.46-5.71,0.89-9.53
			c3.84,5.14,0.74,11.63,6.58,16.49C22.88,688.6,20.96,689.65,19.67,690.35z"/>
		<path fill="#FEFEFD" d="M123.76,587.8c-0.54-5.49-1.08-10.97-1.62-16.46c0.36-0.06,0.73-0.12,1.09-0.18
			c0.9,5.4,1.8,10.79,2.69,16.19C125.2,587.5,124.48,587.65,123.76,587.8z"/>
		<path fill="#FEFEFD" d="M24.76,614.86c1.87,4.15,3.75,8.3,5.62,12.45c-0.76,0.28-1.51,0.57-2.27,0.85
			c-1.48-4.3-2.97-8.59-4.45-12.89C24.03,615.13,24.39,615,24.76,614.86z"/>
		<path fill="#FEFEFD" d="M96.46,706.71c-0.6,2.82-1.2,5.63-1.8,8.45c-0.63-0.13-1.26-0.27-1.89-0.4c0.49-2.84,0.98-5.68,1.47-8.51
			C94.98,706.4,95.72,706.56,96.46,706.71z"/>
		<path fill="#FEFEFD" d="M112,603.92c0,6.16,0,12.31,0,18.47c-0.36,0-0.72,0-1.07,0c0-6.11,0-12.23,0-18.34
			C111.28,604,111.64,603.96,112,603.92z"/>
		<path fill="#FEFEFD" d="M61.85,601.64c-0.48-3.14-5.92-6.64,0.8-9.72C62.35,595.46,62.1,598.55,61.85,601.64z"/>
		<path fill="#FEFEFD" d="M103.51,553.32c2.43,0.29,4.87,0.58,7.3,0.86c-0.12,0.82-0.24,1.65-0.37,2.47
			c-2.34-0.47-4.69-0.95-7.03-1.42C103.45,554.6,103.48,553.96,103.51,553.32z"/>
		<path fill="#FEFEFD" d="M94.83,611.61c-2.96-0.33-4.79-0.54-8.36-0.94c2.99-1.26,4.45-2.14,6.02-2.38
			C92.95,608.22,93.69,609.95,94.83,611.61z"/>
		<path fill="#FEFEFD" d="M17.79,532c-0.71-1.02-1.42-2.05-2.13-3.07c0.14-0.15,0.27-0.29,0.41-0.44c0.88,0.82,1.75,1.64,2.63,2.46
			C18.39,531.3,18.09,531.65,17.79,532z"/>
		<path fill="#FEFEFD" d="M15.75,667.42c-0.87-1.08-1.75-2.14-2.55-3.26c-0.05-0.07,0.62-0.65,0.96-0.99
			c0.97,1.03,1.94,2.06,2.91,3.09C16.63,666.64,16.19,667.03,15.75,667.42z"/>
		<path fill="#FEFEFD" d="M70.28,558.25c-0.18,0.86-0.35,1.71-0.53,2.57c-0.24-0.06-0.47-0.13-0.71-0.19
			c0.27-0.91,0.55-1.82,0.82-2.72C70,558.01,70.14,558.13,70.28,558.25z"/>
		<path fill="#FEFEFD" d="M22.21,623.02c0.07,0.19,0.14,0.38,0.21,0.58c-0.04-0.22-0.08-0.44-0.12-0.66
			C22.3,622.94,22.21,623.02,22.21,623.02z"/>
		<path fill="#FEFEFD" d="M18.29,618.86c-0.44-0.03-0.87-0.06-1.31-0.09c0.41,0.06,0.82,0.12,1.24,0.18
			C18.22,618.94,18.29,618.86,18.29,618.86z"/>
		<path fill="#FEFEFD" d="M21.22,622c0.33,0.34,0.65,0.68,0.98,1.02c0,0,0.09-0.08,0.09-0.08c-0.33-0.34-0.65-0.68-0.98-1.02
			C21.31,621.92,21.22,622,21.22,622z"/>
		<polygon fill="#FEFEFD" points="20.36,535.58 20.69,535.42 20.66,535.79 		"/>
		<polygon fill="#FEFEFD" points="19.56,533.87 19.46,533.5 19.75,533.53 		"/>
		<path fill="#FEFEFD" d="M20.22,621.01c0.33,0.33,0.67,0.67,1,0.99c0,0,0.09-0.08,0.09-0.08c-0.33-0.33-0.67-0.66-1-0.99
			C20.31,620.93,20.22,621.01,20.22,621.01z"/>
		<path fill="#FEFEFD" d="M19.24,619.98c0.32,0.35,0.65,0.69,0.97,1.04c0,0,0.09-0.08,0.09-0.08c-0.32-0.35-0.65-0.69-0.97-1.04
			C19.33,619.9,19.24,619.98,19.24,619.98z"/>
		<path fill="#FEFEFD" d="M18.22,618.94c0.34,0.35,0.67,0.7,1.01,1.04c0,0,0.09-0.08,0.09-0.08c-0.35-0.35-0.69-0.69-1.04-1.04
			C18.29,618.86,18.22,618.94,18.22,618.94z"/>
		<polygon fill="#FEFEFD" points="21.62,537.32 21.74,537.71 21.43,537.67 		"/>
		<path fill="#FEFEFD" d="M256.89,625.1c4.41,6.09,6.01,5.42,9.89-2.7c4.81-0.95,8.43-1.72,12.07-2.36c1.12-0.2,2.35-0.22,3.44,0.05
			c0.36,0.09,0.43,1.33,0.64,2.05c-1.14,0.12-2.5-0.11-3.39,0.42c-2.57,1.55-4.85,3.59-7.45,5.08c-1.33,0.76-3.11,0.73-4.68,1.08
			c-0.81,0.18-2.03,0.15-2.35,0.66c-2.65,4.21-6.62,5.46-10.4,3.26C255.41,630.11,256.14,627.62,256.89,625.1z"/>
		<path fill="#FEFEFD" d="M336.42,673.7c-1.35-4.22-3.3-8.37-3.84-12.69c-0.4-3.15,1.43-6.52,1.59-9.83
			c0.19-3.76-1.01-6.68-5.95-5.24c-0.71,0.21-1.87-1.11-2.73-1.66c10.04-4.12,9.52-13.07,9.77-21.62c0.64,0.22,1.28,0.45,1.92,0.67
			c-0.61,6.01-1.39,12.02-1.69,18.05c-0.06,1.16,1.79,2.41,1.81,2.43c0,10.54,0,20.46,0,30.37
			C337,674.02,336.71,673.86,336.42,673.7z"/>
		<path fill="#FEFEFD" d="M313.98,637.97c1.84-5.94,2.74-11.79-1.28-16.89c0.87-2.12,1.74-4.24,2.79-6.81
			c1.72-0.43,4.58-1.15,7.12-1.79c-2.16,3.69-5.71,7.39-6.3,11.51c-0.52,3.64-3.47,9.48,3.18,13.89c-1.86,0-3.73,0-5.59,0
			C313.9,637.87,313.98,637.97,313.98,637.97z"/>
		<path fill="#FEFEFD" d="M353.8,577.48c-1.46,1.54-2.64,3.87-4.42,4.47c-6.81,2.33-13.39,0.76-18.91-0.57
			C332.61,585.87,341.02,584.68,353.8,577.48z"/>
		<path fill="#FEFEFD" d="M362,677.05c0.75-0.69,1.82-2.01,3.18-2.83c0.74-0.45,2.09-0.29,2.97,0.07c0.39,0.16,0.56,1.53,0.41,2.25
			c-0.63,2.99-1.42,5.95-2.31,9.57C364.83,683.08,363.52,680.27,362,677.05z"/>
		<path fill="#FEFEFD" d="M291.86,579.64c-0.38-0.58-0.91-1.38-1.54-2.34c3.55-2.53,7.09-5.04,10.62-7.56
			c0.19,0.28,0.37,0.55,0.56,0.83C298.3,573.58,295.1,576.59,291.86,579.64z"/>
		<path fill="#FEFEFD" d="M293.59,690.61c-0.28-4.77-0.57-9.53-0.85-14.3c0.73-0.02,1.47-0.03,2.2-0.05c0,4.76,0,9.51,0,14.27
			C294.5,690.55,294.05,690.58,293.59,690.61z"/>
		<path fill="#FEFEFD" d="M263.37,704.28c1.57-2.58,3.13-5.16,4.7-7.73c0.82,0.49,1.65,0.98,2.47,1.48
			c-1.62,2.56-3.24,5.12-4.86,7.68C264.91,705.22,264.14,704.75,263.37,704.28z"/>
		<path fill="#FEFEFD" d="M354.32,544.26c3.62-2.09,7.24-4.17,10.86-6.26c0.33,0.5,0.66,1,0.99,1.51
			c-3.63,2.12-7.26,4.24-10.89,6.36C354.96,545.34,354.64,544.8,354.32,544.26z"/>
		<path fill="#FEFEFD" d="M324.42,596.8c-4.29,1.6-7.37,2.75-12.39,4.64c3.15-3.33,4.76-5.04,6.49-6.88
			C319.74,595.02,321.37,595.63,324.42,596.8z"/>
		<path fill="#FEFEFD" d="M332.63,547.36c-2.01,1.52-4.33,3.28-7.57,5.73c0.82-2.73,1.51-5,2.1-6.95
			C329.78,546.73,331.84,547.19,332.63,547.36z"/>
		<path fill="#FEFEFD" d="M260.61,650.83c-1.16-4.41-1.97-6.96-2.42-9.58c-0.11-0.65,0.93-1.5,1.45-2.26
			c0.32,0.74,0.89,1.46,0.93,2.21C260.68,643.76,260.61,646.33,260.61,650.83z"/>
		<path fill="#FEFEFD" d="M321.21,604.11c-2.09,1.82-4.18,3.64-6.27,5.45c-0.52-0.26-1.04-0.52-1.55-0.78
			c1.14-1.51,2.03-3.39,3.5-4.42c0.98-0.69,2.81-0.17,4.25-0.19C321.14,604.19,321.21,604.11,321.21,604.11z"/>
		<path fill="#FEFEFD" d="M272.99,608.51c2.22-1.96,4.45-3.92,6.67-5.88c0.42,0.49,0.83,0.98,1.25,1.48
			c-2.36,1.83-4.72,3.67-7.08,5.5C273.55,609.24,273.27,608.87,272.99,608.51z"/>
		<path fill="#FEFEFD" d="M288.32,509.52c-2.6,1.35-5.2,2.69-7.79,4.04c-0.3-0.62-0.6-1.25-0.9-1.87c2.77-1.24,5.53-2.48,8.3-3.72
			C288.06,508.48,288.19,509,288.32,509.52z"/>
		<path fill="#FEFEFD" d="M374.74,499.59c-3.14,1.7-6.17,3.34-9.2,4.98c-0.17-0.58-0.35-1.15-0.52-1.73
			C368.26,501.76,371.5,500.67,374.74,499.59z"/>
		<path fill="#FEFEFD" d="M361.84,700.01c1.41,1.46,3.49,3.6,5.68,5.86C361.83,705.63,359.86,703.32,361.84,700.01z"/>
		<path fill="#FEFEFD" d="M294.79,521.96c-2.64,0.27-5.29,0.54-7.93,0.81c0.61-0.54,1.13-1.37,1.83-1.57
			c2.07-0.59,4.2-0.92,6.31-1.36C294.93,520.55,294.86,521.25,294.79,521.96z"/>
		<path fill="#FEFEFD" d="M286.23,500.16c2.3-1.48,4.6-2.95,6.91-4.43c0.3,0.47,0.6,0.94,0.9,1.41c-2.29,1.61-4.59,3.23-6.88,4.84
			C286.84,501.38,286.53,500.77,286.23,500.16z"/>
		<path fill="#FEFEFD" d="M299.74,662.57c-0.7,1.56-1.41,3.13-2.11,4.7c-0.44,0.04-0.89,0.08-1.33,0.13c-0.2-2-0.4-4-0.66-6.68
			C297.8,661.69,298.96,662.22,299.74,662.57z"/>
		<path fill="#FEFEFD" d="M334.29,536.74c-1.49,1.87-2.98,3.73-4.47,5.6c-0.53-0.63-1.56-1.79-1.53-1.82
			c1.72-1.61,3.52-3.12,5.31-4.64C333.83,536.16,334.06,536.45,334.29,536.74z"/>
		<path fill="#FEFEFD" d="M329.54,591.34c1.33-1.54,2.65-3.09,3.98-4.63c0.54,0.52,1.08,1.04,1.62,1.56
			c-1.46,1.45-2.93,2.9-4.39,4.35C330.35,592.19,329.94,591.76,329.54,591.34z"/>
		<path fill="#FEFEFD" d="M284.23,591.24c1.36-1.28,2.73-2.56,4.09-3.84c0.49,0.81,0.98,1.61,1.47,2.42
			c-1.52,0.79-3.04,1.58-4.56,2.37C284.89,591.87,284.56,591.56,284.23,591.24z"/>
		<path fill="#FEFEFD" d="M253.78,520.78c0.19-0.26,0.33-0.65,0.59-0.76c2.06-0.83,4.14-1.6,6.21-2.39c0.17,0.69,0.52,1.98,0.48,2
			c-2.2,0.67-4.44,1.24-6.67,1.82C254.19,521.22,253.99,521,253.78,520.78z"/>
		<path fill="#FEFEFD" d="M334.38,595.34c-0.38,2.17-0.77,4.34-1.15,6.52c-0.34-0.03-0.69-0.06-1.03-0.1
			c-0.11-2.15-0.22-4.3-0.32-6.46C332.71,595.31,333.55,595.33,334.38,595.34z"/>
		<path fill="#FEFEFD" d="M366.93,691.52c0,2.79,0,5.35,0,8.11c-1-2.4-1.93-4.62-2.96-7.08
			C364.54,692.36,365.62,691.98,366.93,691.52z"/>
		<path fill="#FEFEFD" d="M334.8,607.75c0.14,1.85,0.28,3.71,0.42,5.56c-0.59,0.06-1.19,0.13-1.78,0.19
			c-0.16-1.89-0.31-3.77-0.47-5.66C333.58,607.81,334.19,607.78,334.8,607.75z"/>
		<path fill="#FEFEFD" d="M336.45,593.27c2.38,0.3,4.76,0.6,7.13,0.9c-0.02,0.45-0.04,0.89-0.05,1.34
			c-2.44-0.16-4.88-0.32-7.32-0.49C336.29,594.44,336.37,593.86,336.45,593.27z"/>
		<path fill="#FEFEFD" d="M264.18,516c1.56,0.1,3.12,0.2,4.67,0.3c-0.1,0.44-0.2,0.87-0.3,1.31c-1.43-0.57-2.85-1.15-4.28-1.72
			L264.18,516z"/>
		<path fill="#FEFEFD" d="M253.21,661.33c-0.16,1.42-0.33,2.84-0.49,4.27c-0.56-0.06-1.12-0.11-1.67-0.17
			c0.06-1.36,0.13-2.73,0.19-4.09C251.9,661.34,252.56,661.34,253.21,661.33z"/>
		<path fill="#FEFEFD" d="M339.93,622.36c0.51-0.32,1.03-0.65,1.54-0.97c0.15,0.33,0.47,0.92,0.42,0.95
			c-0.45,0.3-0.97,0.5-1.46,0.73C340.26,622.84,340.1,622.6,339.93,622.36z"/>
		<path fill="#FEFEFD" d="M264.27,514.11c-0.03,0.63-0.06,1.27-0.09,1.9c0,0,0.09-0.11,0.09-0.11c-0.51-0.15-1.02-0.31-1.53-0.46
			c0.49-0.41,0.97-0.82,1.46-1.24L264.27,514.11z"/>
		<path fill="#FEFEFD" d="M346.51,593.37c0.14,0.12,0.28,0.23,0.41,0.35c-0.14,0.04-0.28,0.1-0.42,0.1c-0.14,0-0.28-0.07-0.42-0.1
			C346.22,593.6,346.36,593.48,346.51,593.37z"/>
		<path fill="#FEFEFD" d="M346.03,616.97c0.25-0.17,0.5-0.35,0.75-0.52c-0.27,0.14-0.54,0.28-0.8,0.43
			C345.97,616.88,346.03,616.97,346.03,616.97z"/>
		<path fill="#FEFEFD" d="M361.16,524.13c-0.13,0-0.27-0.04-0.39,0c-0.06,0.02-0.08,0.17-0.12,0.27c0.19-0.09,0.37-0.18,0.56-0.26
			C361.22,524.13,361.16,524.13,361.16,524.13z"/>
		<path fill="#FEFEFD" d="M344.92,618.04c0.37-0.35,0.74-0.71,1.11-1.07c0,0-0.06-0.09-0.06-0.09c-0.33,0.35-0.66,0.71-0.98,1.07
			L344.92,618.04z"/>
		<polygon fill="#FEFEFD" points="321.14,604.19 321.2,604 321.21,604.12 		"/>
		<path fill="#FEFEFD" d="M264.2,514.19l0.01-0.2c0,0,0.05,0.12,0.06,0.12C264.27,514.11,264.2,514.19,264.2,514.19z"/>
		<polygon fill="#FEFEFD" points="344.98,617.95 345,618.18 344.92,618.04 		"/>
		<path fill="#FEFEFD" d="M868.1,603.74c-1.06-0.6-2.46-1.38-4.41-2.48c8.89-7.66,13.85-17.17,12.4-29.46
			c0.82,0.21,1.64,0.42,2.46,0.63c-1.41,7.67-2.82,15.34-4.24,23c0.9,0.2,1.8,0.4,2.7,0.6C874.07,598.58,871.13,601.13,868.1,603.74
			z"/>
		<path fill="#FEFEFD" d="M886.07,514.82c2.73,3.7,4.61,6.24,6.49,8.78c-5.92-3.1-7.93-13.24-13.52-10.1c8.51,0,21.11,0,33.7,0
			c0.01,0.44,0.02,0.88,0.03,1.32C904.29,514.82,895.8,514.82,886.07,514.82z"/>
		<path fill="#FEFEFD" d="M920.23,672.61c-1.8-3.9-3.52-7.62-5.16-11.19c0.04,0.01,1.15,0.19,2.24,0.44
			c3.57,0.82,7.54,0.98,10.57,2.74c2.1,1.23,2.9,4.68,4.29,7.14c-0.61,0.34-1.22,0.69-1.83,1.03c-0.06,0.13-0.12,0.26-0.17,0.39
			c0.03-0.11,0.12-0.23,0.08-0.31c-0.75-2.04-1.52-4.07-2.29-6.11c-1.68,1.17-3.41,2.29-5.04,3.53
			C921.67,671.23,920.54,672.35,920.23,672.61z"/>
		<path fill="#FEFEFD" d="M839.35,668.39c0.47-5.15,0.79-8.63,1.16-12.68c4.04-0.49,8.48-1.02,12.92-1.56
			c0.08,0.77,0.15,1.53,0.23,2.3c-2.24,0-4.5-0.18-6.71,0.09c-0.9,0.11-1.69,1.16-2.53,1.78c6.37,4.01,0.18,5.07-1.69,7.11
			C842.17,666.03,841.49,666.52,839.35,668.39z"/>
		<path fill="#FEFEFD" d="M934.58,649.43c3.13-1,5.2-1.66,7.26-2.31c0.19,0.63,0.38,1.26,0.56,1.9c-3.53,1.02-7.06,2.04-10.79,3.12
			c0.25-5.31,0.47-10.06,0.69-14.82c0.46-0.02,0.92-0.05,1.39-0.07C933.98,641.24,934.27,645.24,934.58,649.43z"/>
		<path fill="#FEFEFD" d="M877.2,606.69c-1.98,4.7-3.6,8.56-4.51,10.71c-2.05-2.1-4.17-4.27-5.79-5.92
			C869.66,610.2,873.48,608.42,877.2,606.69z"/>
		<path fill="#FEFEFD" d="M878.37,718.43c2.67-2.05,5.48-4.2,8.21-6.29c-0.24,1.38-0.62,3.57-1.05,6.03
			c1.09,0.39,2.38,0.86,3.66,1.33c-0.13,0.53-0.26,1.06-0.39,1.58C884.97,720.1,881.13,719.13,878.37,718.43z"/>
		<path fill="#FEFEFD" d="M912.48,556.05c2.2-0.96,5.26-2.85,8.56-3.47c1.24-0.24,3.04,2.44,5.82,4.86
			C920.57,556.83,915.8,556.37,912.48,556.05z"/>
		<path fill="#FEFEFD" d="M919.45,644.01c-2.43-3.75-4.86-7.5-7.3-11.25c0.45-0.29,0.91-0.58,1.36-0.86
			c2.41,3.77,4.82,7.53,7.23,11.3C920.31,643.46,919.88,643.73,919.45,644.01z"/>
		<path fill="#FEFEFD" d="M856.22,540.74c1.17,2.97,2.44,5.91,3.43,8.93c0.21,0.65-0.59,1.62-0.92,2.45
			c-0.82-0.4-2.26-0.7-2.36-1.23c-0.58-3.26-0.86-6.58-1.23-9.88C855.49,540.92,855.86,540.83,856.22,540.74z"/>
		<path fill="#FEFEFD" d="M880.77,696.52c-3.62,1.03-7.24,2.05-10.86,3.08c-0.21-0.8-0.42-1.6-0.64-2.4c3.67-0.96,7.33-1.91,11-2.87
			C880.44,695.06,880.61,695.79,880.77,696.52z"/>
		<path fill="#FEFEFD" d="M881.15,627.87c3.8,0.26,7.6,0.52,11.4,0.78c-0.04,0.59-0.09,1.17-0.13,1.76
			c-3.84-0.5-7.69-1.01-11.53-1.51C880.97,628.56,881.06,628.22,881.15,627.87z"/>
		<path fill="#FEFEFD" d="M844.91,703.59c3.49-0.75,6.98-1.5,10.46-2.25c0.16,0.75,0.32,1.5,0.49,2.25
			c-3.45,0.76-6.91,1.52-10.36,2.27C845.3,705.1,845.1,704.34,844.91,703.59z"/>
		<path fill="#FEFEFD" d="M885.91,700.57c-1.13-2.48-2.27-4.95-3.4-7.43c1.09-0.45,2.18-0.9,2.57-1.06
			c0.79,3.02,1.41,5.38,2.03,7.74C886.71,700.07,886.31,700.32,885.91,700.57z"/>
		<path fill="#FEFEFD" d="M840.96,650.24c-2.44-0.76-4.67-1.46-8.63-2.7C841.68,647.34,841.68,647.34,840.96,650.24z"/>
		<path fill="#FEFEFD" d="M917.7,513.85c2.25,1.37,4.5,2.73,6.75,4.1c-0.2,0.42-0.41,0.84-0.61,1.26c-2.37-1.21-4.73-2.43-7.1-3.64
			C917.06,514.99,917.38,514.42,917.7,513.85z"/>
		<path fill="#FEFEFD" d="M867.2,653.01c1.39,1.63,2.78,3.25,4.85,5.67c-2.96-0.37-4.76-0.59-6.44-0.8
			c0.55-1.62,1.11-3.28,1.67-4.94L867.2,653.01z"/>
		<path fill="#FEFEFD" d="M838.03,669.74c-2.01,0-4.01,0-6.02,0c0-0.71,0-1.42,0-2.12c2.06,0,4.12,0,6.18,0
			C838.13,668.32,838.08,669.03,838.03,669.74z"/>
		<path fill="#FEFEFD" d="M867.27,652.93c-2.59,0-5.18,0-8.58,0c1.09,1.38,1.64,2.07,2.25,2.84c-1.31,0-2.58,0-3.88,0
			c0.99-3.99,3.75-4.7,10.13-2.76C867.2,653.01,867.27,652.93,867.27,652.93z"/>
		<path fill="#FEFEFD" d="M931.85,541.73c1.64,1.28,3.27,2.55,4.91,3.83c-0.45,0.56-0.9,1.13-1.35,1.69
			c-0.76-0.71-1.55-1.39-2.26-2.14c-0.74-0.79-1.39-1.65-2.08-2.48C931.33,542.33,931.59,542.03,931.85,541.73z"/>
		<path fill="#FEFEFD" d="M832.92,583.26c1.94,1.17,3.89,2.33,5.83,3.5c-0.31,0.44-0.62,0.88-0.93,1.32
			c-1.6-1.64-3.2-3.27-4.81-4.91C833,583.17,832.92,583.26,832.92,583.26z"/>
		<path fill="#FEFEFD" d="M865.16,669.1c0.65-0.72,1.29-1.43,1.94-2.15c0.14,0.21,0.28,0.42,0.42,0.63
			c-0.81,0.49-1.61,0.97-2.42,1.46C865.1,669.03,865.16,669.1,865.16,669.1z"/>
		<path fill="#FEFEFD" d="M865.1,669.03c-1.05,1.31-2.11,2.62-3.16,3.93c-0.16-0.15-0.32-0.29-0.47-0.44
			c1.23-1.14,2.47-2.29,3.7-3.43C865.16,669.1,865.1,669.03,865.1,669.03z"/>
		<path fill="#FEFEFD" d="M858.81,673.82c0.14,1.08,0.28,2.17,0.42,3.25l-0.07-0.08c-0.97-0.08-1.94-0.16-3.51-0.29
			c1.32-1.15,2.28-1.99,3.24-2.82L858.81,673.82z"/>
		<path fill="#FEFEFD" d="M950.71,642.67c-0.91,0.58-1.81,1.16-2.72,1.74c-0.18-0.26-0.36-0.53-0.54-0.79
			c0.79-0.6,1.57-1.2,2.36-1.8C950.11,642.1,950.41,642.38,950.71,642.67z"/>
		<path fill="#FEFEFD" d="M840.64,705.51c1.02-0.21,2.05-0.42,3.07-0.63c0.07,0.23,0.14,0.46,0.21,0.68
			c-0.82,0.32-1.64,0.64-2.47,0.96C841.18,706.19,840.91,705.85,840.64,705.51z"/>
		<path fill="#FEFEFD" d="M827.62,645.53c0.8,0.04,1.6,0.07,2.41,0.11c-0.39,0.39-0.79,0.77-1.18,1.16
			C828.44,646.37,828.03,645.95,827.62,645.53z"/>
		<path fill="#FEFEFD" d="M858.89,673.88c0.2-0.02,0.4-0.03,0.59-0.04c-0.22,0-0.44,0-0.66-0.01
			C858.81,673.82,858.89,673.88,858.89,673.88z"/>
		<path fill="#FEFEFD" d="M870.87,620.61c-0.1,0.1-0.2,0.2-0.3,0.3c-0.08-0.11-0.23-0.23-0.22-0.34c0.01-0.11,0.18-0.2,0.28-0.3
			C870.7,620.39,870.79,620.5,870.87,620.61z"/>
		<polygon fill="#FEFEFD" points="859.23,677.07 859.2,677.2 859.16,676.98 		"/>
		<path fill="#FEFEFD" d="M487.91,498.32c-4.16,2.21-8.29,4.45-12.47,6.61c-3.9,2-7.77,4.1-11.84,5.69
			c-0.82,0.32-2.48-1.48-4.8-2.99c10.46-3.55,19.73-6.69,29-9.84C487.83,497.96,487.87,498.14,487.91,498.32z"/>
		<path fill="#FEFEFD" d="M427.31,716.32c-2.1-5.03-3.28-7.86-4.4-10.57c4.7,0.22,9.14,0.43,13.58,0.64
			c-0.09-0.61-0.19-1.22-0.28-1.83c1.05,1.13,2.1,2.26,3.31,3.56C437.59,713.98,426.1,701.73,427.31,716.32z"/>
		<path fill="#FEFEFD" d="M428.04,517c-2.78,1.71-5.56,3.42-8.87,5.46c0.6-3.38,1.05-5.92,1.34-7.56c2.52,0.74,5.06,1.48,7.61,2.22
			L428.04,517z"/>
		<path fill="#FEFEFD" d="M430.68,561.77c0.61,3.85,1.22,7.69,1.83,11.54c0.76-0.32,1.52-0.64,2.28-0.96c-1.59,0-3.19,0-5.38,0
			c0.21-4,0.39-7.59,0.58-11.19C430.21,561.37,430.45,561.57,430.68,561.77z"/>
		<path fill="#FEFEFD" d="M489.84,706.07c4.77,0,9.55,0,14.32,0c0,0.23,0.01,0.45,0.01,0.68c-4.78,0-9.55,0-14.33,0
			C489.85,706.52,489.84,706.29,489.84,706.07z"/>
		<path fill="#FEFEFD" d="M421.79,496.17c3.85,0.25,7.7,0.5,11.56,0.75c-0.01,0.49-0.02,0.98-0.03,1.47c-3.87,0-7.74,0-11.61,0
			C421.73,497.65,421.76,496.91,421.79,496.17z"/>
		<path fill="#FEFEFD" d="M447.71,561.97c-0.87-2.45-1.74-4.9-2.61-7.35c0.59-0.23,1.18-0.46,1.77-0.69
			c1.01,2.39,2.03,4.77,3.04,7.16C449.17,561.38,448.44,561.67,447.71,561.97z"/>
		<path fill="#FEFEFD" d="M445.01,544.69c-1.31-3.07-2.47-5.78-3.62-8.5c0.89-0.27,1.77-0.55,2.66-0.82
			C444.35,538.35,444.66,541.34,445.01,544.69z"/>
		<path fill="#FEFEFD" d="M439.5,517.58c0,3.15,0,6.31,0,9.46c-0.16,0.05-0.32,0.09-0.49,0.14c-0.64-3.06-1.29-6.13-1.93-9.19
			C437.89,517.85,438.7,517.71,439.5,517.58z"/>
		<path fill="#FEFEFD" d="M458.68,509.8c-3.29,1.1-6.57,2.19-9.86,3.29c-0.17-0.5-0.34-0.99-0.51-1.49c3.17-1.13,6.35-2.27,9.52-3.4
			C458.12,508.73,458.4,509.27,458.68,509.8z"/>
		<path fill="#FEFEFD" d="M425.58,530.32c0.81-2.43,1.63-4.86,2.44-7.28c0.71,0.26,1.41,0.52,2.12,0.78
			c-1.17,2.11-2.35,4.21-3.52,6.32C426.27,530.2,425.92,530.26,425.58,530.32z"/>
		<path fill="#FEFEFD" d="M468.51,655.2c0-2.47,0-4.24,0-6.98c1.88,2.14,2.87,3.27,4.05,4.61
			C471.61,653.39,470.41,654.09,468.51,655.2z"/>
		<path fill="#FEFEFD" d="M422.88,694.11c0,2.61,0,5.23,0,7.84c-0.33,0.02-0.67,0.04-1,0.05c-0.14-2.62-0.27-5.25-0.41-7.87
			C421.94,694.13,422.41,694.12,422.88,694.11z"/>
		<path fill="#FEFEFD" d="M459.8,556.91c-0.5,0.39-1.55,1.22-3.13,2.46c0.88-3.34,1.6-6.03,1.93-7.3
			C458.72,552.51,459.2,554.45,459.8,556.91z"/>
		<path fill="#FEFEFD" d="M436.03,647.15c-1.8-0.55-3.61-1.09-5.41-1.64c0.1-0.22,0.19-0.43,0.29-0.65
			c1.68,0.79,3.36,1.59,5.03,2.38L436.03,647.15z"/>
		<path fill="#FEFEFD" d="M435.94,647.25c0.96,1.83,1.91,3.66,2.87,5.48c-0.35,0.12-0.7,0.24-1.05,0.36
			c-0.57-1.98-1.15-3.96-1.72-5.94C436.03,647.15,435.94,647.25,435.94,647.25z"/>
		<path fill="#FEFEFD" d="M416.7,586.69c0.41-0.11,0.81-0.23,1.22-0.34c-0.03,0.42-0.06,0.85-0.09,1.27
			C417.46,587.31,417.08,587,416.7,586.69z"/>
		<path fill="#FEFEFD" d="M428.11,517.12c0.26-0.19,0.53-0.38,0.79-0.57c0.02,0.14,0.05,0.29,0.07,0.43
			c-0.31,0.01-0.62,0.02-0.94,0.02C428.04,517,428.11,517.12,428.11,517.12z"/>
		<path fill="#FEFEFD" d="M215.22,665.29c-1.39-0.1-3.28-0.23-5.16-0.36c0.08-0.58,0.15-1.15,0.23-1.73
			c1.43,0.35,2.86,0.69,4.09,0.99c0.87-8.13,1.71-16.01,2.55-23.88c0.54,0.06,1.07,0.13,1.61,0.19
			C217.47,648.47,216.4,656.44,215.22,665.29z"/>
		<path fill="#FEFEFD" d="M195.25,686.14c6.74,0,12.17,0,17.59,0c-0.02,0.43-0.05,0.86-0.07,1.29c-2.49,1.1-4.99,2.19-7.48,3.29
			C203.19,689.76,200.08,688.34,195.25,686.14z"/>
		<path fill="#FEFEFD" d="M193.9,536.92c0.1,1.81,0.2,3.61,0.4,7.13c-3.52-3.05-6.39-5.55-9.27-8.04c0.16-0.4,0.32-0.81,0.48-1.21
			c2.82,0.73,5.65,1.47,8.47,2.2L193.9,536.92z"/>
		<path fill="#FEFEFD" d="M173.1,615.1c5.4,2.03,9.15,5.5,9.68,11.82c-3.2-3.97-6.4-7.94-9.6-11.91
			C173.19,615.01,173.1,615.1,173.1,615.1z"/>
		<path fill="#FEFEFD" d="M215.04,539c1.89-2.41,3.78-4.83,6.25-7.99c-0.59,4.57-0.66,8.36-6.32,7.9L215.04,539z"/>
		<path fill="#FEFEFD" d="M206.38,680.41c2.91-1.3,5.83-2.6,8.74-3.89c0.15,0.26,0.29,0.52,0.44,0.78
			c-2.85,1.41-5.69,2.82-8.54,4.22C206.82,681.15,206.6,680.78,206.38,680.41z"/>
		<path fill="#FEFEFD" d="M212.99,541.02c-0.49,0.73-0.98,1.45-0.17,0.25c-1.16,0.81-0.45,0.32,0.25-0.17L212.99,541.02z"/>
		<path fill="#FEFEFD" d="M193.97,536.99c0.25-0.15,0.5-0.3,0.75-0.44c-0.27,0.13-0.54,0.25-0.82,0.37
			C193.9,536.92,193.97,536.99,193.97,536.99z"/>
		<path fill="#FEFEFD" d="M229.15,573.98c-0.49,0-0.98,0-1.47,0c0.13-0.23,0.25-0.46,0.38-0.69c0.34,0.27,0.69,0.54,1.03,0.81
			L229.15,573.98z"/>
		<path fill="#FEFEFD" d="M214.05,540.01c0.33-0.34,0.67-0.67,1-1.01c0,0-0.07-0.09-0.07-0.09c-0.34,0.33-0.68,0.67-1.02,1.01
			C213.96,539.92,214.05,540.01,214.05,540.01z"/>
		<path fill="#FEFEFD" d="M213.07,541.1c0.33-0.36,0.65-0.72,0.98-1.09c0,0-0.09-0.09-0.09-0.09c-0.32,0.37-0.64,0.74-0.96,1.1
			C212.99,541.02,213.07,541.1,213.07,541.1z"/>
		<path fill="#AE6C17" d="M331.76,646.59c-0.88-2.03-1.36-2.66-1.35-3.29c0-0.33,1.14-1.01,1.29-0.9c0.51,0.38,1.04,1.01,1.12,1.61
			C332.89,644.55,332.38,645.16,331.76,646.59z"/>
	</g>
</g>
</svg>
